<?xml version="1.0" encoding="UTF-8" standalone="no"?>
<!-- Created with Inkscape (http://www.inkscape.org/) -->

<svg
   xmlns:dc="http://purl.org/dc/elements/1.1/"
   xmlns:cc="http://creativecommons.org/ns#"
   xmlns:rdf="http://www.w3.org/1999/02/22-rdf-syntax-ns#"
   xmlns:svg="http://www.w3.org/2000/svg"
   xmlns="http://www.w3.org/2000/svg"
   xmlns:sodipodi="http://sodipodi.sourceforge.net/DTD/sodipodi-0.dtd"
   xmlns:inkscape="http://www.inkscape.org/namespaces/inkscape"
   version="1.1"
   id="svg99"
   width="517.59399"
   height="133.90341"
   viewBox="0 0 517.59398 133.90341"
   sodipodi:docname="signature.svg"
   inkscape:version="0.92.2 5c3e80d, 2017-08-06">
  <metadata
     id="metadata105">
    <rdf:RDF>
      <cc:Work
         rdf:about="">
        <dc:format>image/svg+xml</dc:format>
        <dc:type
           rdf:resource="http://purl.org/dc/dcmitype/StillImage" />
        <dc:title></dc:title>
      </cc:Work>
    </rdf:RDF>
  </metadata>
  <defs
     id="defs103" />
  <sodipodi:namedview
     pagecolor="#ffffff"
     bordercolor="#666666"
     borderopacity="1"
     objecttolerance="10"
     gridtolerance="10"
     guidetolerance="10"
     inkscape:pageopacity="0"
     inkscape:pageshadow="2"
     inkscape:window-width="1440"
     inkscape:window-height="810"
     id="namedview101"
     showgrid="false"
     inkscape:zoom="1.4142136"
     inkscape:cx="272.9966"
     inkscape:cy="2.3831125"
     inkscape:window-x="0"
     inkscape:window-y="1"
     inkscape:window-maximized="1"
     inkscape:current-layer="svg99" />
  <path
     style="opacity:1;fill:#3f51b5;fill-opacity:0.94117647;stroke-width:0.56857353"
     d="m 0.38226823,131.15395 c -0.316,-1.51239 -0.46644,-4.72714 -0.33432,-7.14386 0.21084,-3.85679 0.68304,-5.53267 3.86171997,-13.70576 3.96263,-10.18881 3.64054,-8.43611 5.4745,-29.790105 1.0318298,-12.01429 1.2064798,-12.48455 7.8779998,-21.21271 7.67917,-10.04645 9.15598,-11.45076 12.04185,-11.45076 3.13073,0 5.64983,2.0921 9.9571,8.26934 l 3.58954,5.14792 2.00499,10.92252 c 1.10274,6.00741 2.15613,13.47017 2.34086,16.58393 0.18473,3.11374 0.424,5.66138 0.5317,5.66138 0.1077,0 1.36435,-1.01904 2.79256,-2.26455 2.77233,-2.41769 4.37697,-2.82493 5.32185,-1.35061 0.32215,0.50267 1.75492,3.92055 3.18393,7.59531 2.99305,7.696745 4.52336,9.478025 6.32686,7.364475 0.5769,-0.67609 1.92922,-3.29436 3.00517,-5.818385 2.85388,-6.69492 4.82707,-9.97197 6.29076,-10.44768 1.53926,-0.50029 3.70749,0.82652 3.72746,2.28095 0.0238,1.73233 3.16069,8.623115 4.50746,9.901495 1.84197,1.74841 2.82198,0.92087 4.56416,-3.854065 2.59237,-7.10515 5.99249,-11.02797 8.85326,-10.2143 0.85476,0.2431 3.21826,2.83049 6.225822,6.8156 3.817,5.05761 5.28975,6.577755 6.92516,7.148015 2.79383,0.9742 4.8382,0.12955 6.24927,-2.581935 1.04422,-2.00658 1.13356,-2.89433 1.13734,-11.30191 0.007,-16.25674 1.1598,-23.92572 4.12609,-27.45576 3.43291,-4.08536 6.28405,1.3663 6.34053,12.12376 0.0181,3.45617 0.24373,4.53078 1.35823,6.47015 2.40773,4.18976 12.83022,17.53049 13.69576,17.53049 1.50669,0 3.05017,-2.25095 4.89516,-7.13888 0.99386,-2.63306 2.4066,-5.34542 3.13941,-6.02749 1.3192,-1.22787 1.34946,-1.22647 3.05682,0.13997 0.94844,0.75906 2.29892,1.38013 3.00105,1.38013 1.6568,0 3.78647,-2.78611 5.63901,-7.37713 1.57777,-3.91007 2.55799,-4.46423 4.60784,-2.60496 0.6168,0.55946 1.78599,2.72192 2.5982,4.80549 0.81221,2.08357 1.68114,3.95188 1.93096,4.15181 0.73818,0.5908 1.47936,-1.06584 2.29819,-5.13678 1.06186,-5.27928 1.55275,-5.75661 6.13588,-5.96646 4.55019,-0.20832 5.10562,-0.73283 5.66974,-5.35399 0.54482,-4.46311 2.26843,-7.22896 6.89931,-11.07123 3.54294,-2.93958 4.01419,-3.15058 7.04461,-3.15402 4.01588,-0.005 6.53545,-0.87334 8.38838,-2.89236 1.52581,-1.66258 1.68303,-2.07869 5.62837,-14.89704 4.19879,-13.64179 6.22486,-17.88678 9.62332,-20.16255 2.14695,-1.43771 5.99143,-0.86285 7.6533,1.14439 3.5504,4.28824 6.45964,17.77143 7.66343,35.51706 0.66148,9.75109 1.33795,12.709 3.66228,16.01361 0.74649,1.06134 1.57571,1.45193 3.06032,1.44157 3.45999,-0.024 6.14792,-2.16517 11.28847,-8.99164 4.95345,-6.57802 6.55682,-8.05781 9.50692,-8.77452 2.6669,-0.64789 4.3642,0.58923 8.2616,6.02181 4.5218,6.30298 7.8068,8.76868 11.1049,8.33538 2.6822,-0.35238 7.2413,-2.33446 8.1873,-3.55936 0.3643,-0.47188 0.7731,-3.28638 0.9514,-6.55146 0.1933,-3.54017 0.6085,-6.27139 1.0883,-7.15836 1.2803,-2.36712 4.3748,-4.7024 6.6763,-5.03832 2.953,-0.43101 4.9462,0.79813 6.7257,4.14746 2.0009,3.76589 3.3312,3.74831 6.9462,-0.0917 4.0844,-4.33859 4.4146,-4.21067 11.2737,4.36736 8.8622,11.08314 8.7661,11.05935 13.7085,3.39676 3.4773,-5.39122 5.5109,-7.4406 7.3833,-7.4406 0.5158,0 3.2812,1.95212 6.1454,4.33805 8.1755,6.81016 12.2478,8.46112 16.3275,6.61941 1.1327,-0.51131 1.7829,-1.46995 2.5234,-3.72033 2.2468,-6.82749 2.6876,-12.78702 1.3764,-18.60422 -1.212,-5.3766 -2.7783,-16.97661 -2.7783,-20.57559 0,-4.54331 1.1215,-9.1937402 3.0257,-12.5468602 2.5467,-4.48434 5.2625,-4.48147 7.031,0.007 0.5754,1.46077 1.1639,4.42396 1.3076,6.58487 0.4697,7.0624402 1.4698,7.7180502 5.3829,3.5287502 2.3314,-2.496 4.152,-3.8054302 5.291,-3.8054302 0.2687,0 1.6003,1.3466702 2.9591,2.9926002 3.748,4.53993 4.2614,8.40149 2.4474,18.40757 -0.5692,3.13968 -0.9627,6.52401 -0.8744,7.52078 0.1384,1.56198 0.406,1.83899 1.938,2.00567 2.2574,0.24561 6.1214,-3.28017 8.4615,-7.72079 2.166,-4.1104 3.1274,-5.15464 7.442,-8.0835 3.506,-2.38001 5.7314,-4.66125 7.671,-7.86359 1.7239,-2.84634 5.1614,-1.25588 6.917,3.2003 0.8129,2.0634 0.9263,3.22445 0.6526,6.68397 -0.3791,4.79099 0.1307,6.14955 2.3074,6.14955 2.1228,0 6.9501,-4.58058 11.1688,-10.59803 4.3207,-6.16286 6.5447,-7.9444 8.487,-6.79842 0.7157,0.42228 2.3216,3.01363 3.7706,6.08419 1.3882,2.94176 3.5746,6.54624 4.8587,8.00995 3.577,4.07721 8.772,5.64805 12.3226,3.72602 1.5204,-0.823 6.1168,-6.71797 8.5082,-10.9118 0.6016,-1.05513 2.5553,-3.21178 4.3416,-4.79255 1.7862,-1.58076 4.3402,-3.88454 5.6755,-5.1195 2.7249,-2.52011 5.1956,-2.9491102 6.4107,-1.11311 0.4121,0.62274 1.5052,2.87421 2.4291,5.00326 1.9865,4.5782 6.1647,10.06083 12.0828,15.85529 3.4234,3.35192 4.1992,4.41137 3.8497,5.25706 -1.1805,2.8564 -4.0843,1.68625 -9.8155,-3.95534 -4.4646,-4.3948 -6.4701,-6.76443 -10.0197,-11.83885 -1.7646,-2.52267 -2.4275,-3.0425 -3.8798,-3.0425 -1.5545,0 -2.4118,0.82546 -7.6148,7.33198 -10.4238,13.03502 -12.164,14.28064 -17.8422,12.77078 -4.2565,-1.13183 -7.8819,-3.84049 -13.1958,-9.85913 l -4.6115,-5.223 -1.0954,1.24186 c -0.6025,0.68301 -2.5568,2.95446 -4.343,5.04767 -4.0229,4.7143 -9.6878,9.55674 -12.8494,10.984 -1.3144,0.59332 -3.9814,1.24453 -5.9269,1.44713 l -3.5372,0.36835 -3.0323,-3.04935 c -4.0881,-4.11119 -6.2708,-4.52934 -8.7757,-1.68127 -0.9927,1.12869 -1.9335,2.57667 -2.0906,3.2177 -0.6105,2.49061 -9.5728,6.51896 -14.5035,6.51896 -1.6616,0 -2.4971,0.38337 -3.4091,1.5643 -1.2395,1.60515 -4.116,2.95201 -6.332,2.96482 -3.0732,0.0177 -4.8882,1.31433 -7.7515,5.5377 -6.0275,8.89041 -10.1313,9.24596 -21.8038,1.88915 -5.4028,-3.40524 -7.85,-3.75325 -9.5644,-1.36018 -0.6058,0.84568 -1.8599,2.62248 -2.7869,3.94844 -1.9833,2.83686 -4.2722,4.21921 -6.9862,4.21921 -2.2623,0 -5.341,-2.45724 -10.6395,-8.49189 -3.881,-4.42027 -5.3187,-5.31234 -6.8224,-4.23339 -0.5792,0.41552 -2.5268,3.14714 -4.3281,6.07024 -5.2292,8.48589 -9.6401,10.83603 -15.0902,8.04017 -3.0583,-1.56895 -4.1414,-1.30326 -8.9846,2.20407 -5.3008,3.83881 -7.8589,3.03671 -15.3284,-4.80635 -4.4421,-4.6643 -7.6303,-7.19405 -9.0664,-7.19405 -0.4274,0 -3.2287,2.8814 -6.22505,6.4031 -2.99637,3.5217 -6.50029,7.3407 -7.78651,8.48666 l -2.33857,2.08356 -3.94982,-0.65297 c -6.39926,-1.05791 -9.10708,0.20916 -12.14352,5.68231 -3.05729,5.51072 -5.60062,4.999 -11.808,-2.3758 -4.35294,-5.17163 -6.17605,-6.40035 -8.09478,-5.45569 -1.39393,0.68629 -3.22076,4.33353 -4.6092,9.20222 -0.46935,1.64583 -1.74075,4.383 -2.82532,6.08261 -1.08458,1.69961 -2.15742,3.51938 -2.3841,4.04389 -0.86498,2.00154 -7.50579,0.39079 -14.02033,-3.40068 -9.46717,-5.50991 -10.70977,-5.41939 -13.30213,0.96899 -3.35976,8.27949 -7.01578,12.235015 -11.33872,12.267615 -1.50091,0.0117 -2.31507,-0.49668 -3.99713,-2.493985 -4.40767,-5.23372 -7.06126,-6.75498 -9.59062,-5.49808 -0.44819,0.22273 -1.47005,2.08565 -2.27083,4.13987 -1.941,4.979255 -3.63253,6.682745 -6.19614,6.239945 -2.57342,-0.44449 -4.13349,-2.01971 -6.44481,-6.507405 -3.07092,-5.96256 -6.05138,-7.59012 -8.63316,-4.71433 -1.2906,1.43756 -1.36771,1.87367 -1.74474,9.866975 -0.42476,9.00515 -1.00893,12.57505 -2.28156,13.94277 -0.70127,0.75366 -1.04379,0.51802 -2.61457,-1.79872 -2.22344,-3.27934 -3.75147,-4.29193 -8.55275,-5.66772 -6.02321,-1.72594 -6.88228,-2.24435 -10.37778,-6.26245 -1.82592,-2.09892 -4.280472,-4.291285 -5.454552,-4.871915 -1.97759,-0.97803 -2.22721,-0.97723 -3.39197,0.0116 -0.69151,0.58676 -2.04259,3.209785 -3.00241,5.828985 -1.41351,3.85726 -2.08831,4.97308 -3.55123,5.87203 -1.70507,1.04777 -1.93139,1.04791 -4.04469,0.002 -1.60222,-0.79237 -2.72703,-1.98754 -3.95693,-4.20441 -3.34949,-6.037395 -5.25004,-5.28407 -9.39617,3.72447 -2.10244,4.5681 -3.38976,5.99165 -5.41827,5.99165 -2.18559,0 -3.61536,-1.6241 -6.60526,-7.50303 -1.52091,-2.99029 -3.08392,-5.43706 -3.47336,-5.43706 -2.22503,0 -6.3341,8.09341 -8.04809,15.85188 -1.21196,5.48598 -2.35767,8.14912 -4.66936,10.85362 -3.15965,3.69651 -5.83685,5.21276 -8.40064,4.7577 -3.54438,-0.62911 -5.10966,-2.0591 -11.17201,-10.2064 l -5.77381,-7.75951 -2.10696,1.0917 c -2.99794,1.55335 -5.2415698,5.26049 -6.5509598,10.82412 -0.60489,2.5702 -1.18929,5.03704 -1.29866,5.48187 -0.12019,0.4888 -1.08697,0.80877 -2.44367,0.80877 -2.21773997,0 -2.25173997,-0.0332 -2.81933997,-2.74982 z M 37.267218,126.4351 c 0.3435,-0.1402 0.62455,-0.86273 0.62455,-1.60563 0,-0.99466 -0.62559,-1.69884 -2.3733,-2.67144 -7.41518,-4.1265 -9.30692,-5.47961 -10.78256,-7.71237 -0.87096,-1.31784 -3.38228,-6.93601 -5.5807,-12.48479 -2.19843,-5.548805 -4.15199,-10.094215 -4.34126,-10.100915 -0.57373,-0.0203 -1.04669,5.69763 -0.70211,8.488185 0.49513,4.00961 1.90728,6.95745 5.53638,11.55711 1.82501,2.31309 4.43412,6.1444 5.79802,8.51402 3.0597,5.31591 5.61314,7.21372 8.94804,6.65048 1.23661,-0.20887 2.52943,-0.49445 2.87294,-0.63465 z m 2.87294,-13.20694 c 3.54586,-3.16008 3.70581,-4.08162 3.52897,-20.332055 -0.17827,-16.38093 -0.46257,-18.14339 -4.88591,-30.28903 -2.3054,-6.33014 -2.68509,-7.00434 -4.46373,-7.92592 -2.7237,-1.41126 -6.54217,-1.28331 -8.93803,0.29949 -1.61796,1.06888 -2.33189,2.21813 -3.9219,6.31329 -3.74573,9.64728 -4.25398,14.31997 -2.57302,23.65552 1.99109,11.05799 5.17656,19.490495 9.98381,26.428985 1.64381,2.37254 3.03264,3.77033 3.91146,3.93663 2.56711,0.48576 5.36055,-0.30648 7.35835,-2.08691 z M 193.37381,76.804675 c 0.72753,-0.75043 3.11211,-5.19988 5.76912,-10.76474 1.24656,-2.61082 1.43072,-4.60379 0.53284,-5.76649 -0.92997,-1.20428 -2.07534,-0.9323 -4.2233,1.00287 -1.08623,0.97861 -2.41278,2.09224 -2.94791,2.47477 -2.40051,1.71588 -3.5976,9.367 -1.9439,12.42437 0.88029,1.62749 1.67338,1.80487 2.81315,0.62922 z m 36.66319,0.31361 c 0.29294,-0.26146 1.29885,-1.93115 2.23535,-3.71044 2.42792,-4.61289 2.2772,-6.92402 -0.83122,-12.74656 -1.34001,-2.51003 -3.22332,-6.6376 -4.18513,-9.17239 -1.44115,-3.79801 -1.95898,-4.60867 -2.94393,-4.60867 -1.58122,0 -2.7435,2.12404 -4.76097,8.70061 -1.44389,4.70679 -1.58764,5.69186 -1.15364,7.90599 0.55291,2.82078 3.77754,7.81095 7.52841,11.65038 2.44713,2.50489 3.14657,2.84192 4.11113,1.98108 z m 76.53575,-13.90092 c 2.0272,-3.30778 0.5346,-10.63622 -2.5548,-12.54405 -3.3702,-2.08112 -6.1339,1.14784 -6.6628,7.78446 l -0.2748,3.44816 2.9357,0.99587 c 3.6841,1.24976 5.9182,1.35728 6.5567,0.31556 z m -91.32415,-8.21074 c 0.2786,-0.67412 1.32001,-4.18785 2.31425,-7.80829 1.80669,-6.57894 1.81122,-8.27057 0.0198,-7.38037 -1.10698,0.55007 -1.59164,1.79267 -3.87157,9.92602 -1.35604,4.83751 -1.73846,6.92958 -1.32691,7.25895 0.74548,0.59664 2.2165,-0.42858 2.86443,-1.99631 z m 18.6991,-3.0032 c 0.56406,-1.90347 0.30778,-8.42728 -0.46311,-11.78883 -0.83996,-3.66277 -2.75739,-7.0534 -3.60508,-6.37498 -1.69208,1.35424 -1.08457,9.07462 1.21707,15.46692 1.34125,3.72499 2.2826,4.61542 2.85112,2.69689 z m 153.71235,-6.76543 c 1.2259,-1.58748 0.974,-4.49524 -0.7826,-9.03353 -2.8934,-7.47515 -6.2062,-6.50545 -6.2241,1.82184 -0.01,3.44802 0.4605,5.28632 1.8831,7.39814 1.0548,1.56598 3.8489,1.46431 5.1236,-0.18645 z m 6.4031,-12.10684 c 0.2539,-0.62276 0.8221,-2.96675 1.2628,-5.20888 0.703,-3.57652 0.7138,-4.34752 0.089,-6.28536 -1.2759,-3.95424 -5.0573,-3.44593 -6.3408,0.85232 -0.7666,2.56745 -0.2584,7.42549 1.02,9.75048 1.2531,2.27887 3.2234,2.72137 3.9694,0.89144 z"
     id="path114"
     inkscape:connector-curvature="0" />
  <path
     style="opacity:1;fill:#3f51b5;fill-opacity:0.94117647;stroke-width:0.49964175"
     d="m 265.33161,98.427815 c -0.74261,-1.38758 -0.63781,-3.13582 0.26526,-4.42514 3.04738,-4.35073 23.75948,-9.02958 72.16518,-16.30206 25.4876,-3.82925 27.2251,-4.13009 28.9223,-5.00772 2.9864,-1.54436 7.0519,-0.50566 7.0519,1.80172 0,1.12063 -5.9948,7.41217 -7.0626,7.41217 -0.3542,0 -1.583,-0.92158 -2.7307,-2.04795 -1.2537,-1.23042 -2.5577,-2.04791 -3.2666,-2.04784 -1.492,1.5e-4 -37.3171,4.69058 -46.6472,6.10734 -13.7314,2.08508 -26.5906,4.97957 -36.8488,8.29435 -4.7929,1.54874 -5.4582,1.9078 -6.179,3.33441 -1.8266,3.61516 -4.5391,4.993355 -5.66974,2.88072 z"
     id="path118"
     inkscape:connector-curvature="0" />
  <path
     style="opacity:1;fill:#3f51b5;fill-opacity:0.94117647;stroke-width:0.49964175"
     d="m 309.54235,93.784765 c -1.0799,-1.54186 -0.9741,-2.69557 0.3313,-3.60985 2.2971,-1.60894 6.7075,-0.57721 6.3119,1.47656 -0.1965,1.02068 -2.3806,2.43863 -4.5197,2.9343 -1.039,0.24076 -1.5212,0.0589 -2.1235,-0.80101 z"
     id="path120"
     inkscape:connector-curvature="0" />
  <path
     style="opacity:1;fill:#3f51b5;fill-opacity:0.94117647;stroke-width:0.49964175"
     d="m 323.33775,91.863535 c -1.0034,-0.40221 -1.1161,-0.69113 -0.8161,-2.09181 0.1915,-0.89383 0.4451,-1.72961 0.5636,-1.85729 0.3914,-0.42176 1.9037,0.80799 2.6657,2.1677 0.6662,1.18862 0.6662,1.39047 0,1.81665 -0.8854,0.56642 -0.9133,0.56601 -2.4132,-0.0353 z"
     id="path122"
     inkscape:connector-curvature="0" />
</svg>
